<mxfile host="Electron" agent="Mozilla/5.0 (Windows NT 10.0; Win64; x64) AppleWebKit/537.36 (KHTML, like Gecko) draw.io/25.0.2 Chrome/128.0.6613.186 Electron/32.2.5 Safari/537.36" version="25.0.2">
  <diagram name="Page-1" id="14Kist1dSjR1HFpn2NpN">
    <mxGraphModel dx="1053" dy="638" grid="1" gridSize="10" guides="1" tooltips="1" connect="1" arrows="1" fold="1" page="1" pageScale="1" pageWidth="850" pageHeight="1100" math="0" shadow="0">
      <root>
        <mxCell id="0" />
        <mxCell id="1" parent="0" />
        <mxCell id="BkS2omjK2WoESzhq4RRW-32" style="edgeStyle=orthogonalEdgeStyle;rounded=0;orthogonalLoop=1;jettySize=auto;html=1;endArrow=baseDash;endFill=0;" edge="1" parent="1" source="BkS2omjK2WoESzhq4RRW-1">
          <mxGeometry relative="1" as="geometry">
            <mxPoint x="100" y="230" as="targetPoint" />
            <Array as="points">
              <mxPoint x="100" y="230" />
              <mxPoint x="100" y="230" />
            </Array>
          </mxGeometry>
        </mxCell>
        <mxCell id="BkS2omjK2WoESzhq4RRW-1" value="Panel solar" style="rounded=0;whiteSpace=wrap;html=1;" vertex="1" parent="1">
          <mxGeometry x="40" y="160" width="120" height="60" as="geometry" />
        </mxCell>
        <mxCell id="BkS2omjK2WoESzhq4RRW-2" value="Batería Backup" style="rounded=0;whiteSpace=wrap;html=1;" vertex="1" parent="1">
          <mxGeometry x="280" y="160" width="120" height="60" as="geometry" />
        </mxCell>
        <mxCell id="BkS2omjK2WoESzhq4RRW-3" value="Batería 1" style="whiteSpace=wrap;html=1;" vertex="1" parent="1">
          <mxGeometry x="620" y="70" width="100" height="60" as="geometry" />
        </mxCell>
        <mxCell id="BkS2omjK2WoESzhq4RRW-4" value="Batería 2" style="whiteSpace=wrap;html=1;" vertex="1" parent="1">
          <mxGeometry x="620" y="160" width="100" height="60" as="geometry" />
        </mxCell>
        <mxCell id="BkS2omjK2WoESzhq4RRW-24" style="edgeStyle=orthogonalEdgeStyle;rounded=0;orthogonalLoop=1;jettySize=auto;html=1;exitX=0;exitY=0.5;exitDx=0;exitDy=0;endArrow=none;endFill=0;" edge="1" parent="1" source="BkS2omjK2WoESzhq4RRW-5">
          <mxGeometry relative="1" as="geometry">
            <mxPoint x="592" y="280" as="targetPoint" />
          </mxGeometry>
        </mxCell>
        <mxCell id="BkS2omjK2WoESzhq4RRW-27" style="edgeStyle=orthogonalEdgeStyle;rounded=0;orthogonalLoop=1;jettySize=auto;html=1;dashed=1;endArrow=baseDash;endFill=0;" edge="1" parent="1" source="BkS2omjK2WoESzhq4RRW-5" target="BkS2omjK2WoESzhq4RRW-4">
          <mxGeometry relative="1" as="geometry">
            <Array as="points">
              <mxPoint x="760" y="280" />
              <mxPoint x="760" y="190" />
            </Array>
          </mxGeometry>
        </mxCell>
        <mxCell id="BkS2omjK2WoESzhq4RRW-28" style="edgeStyle=orthogonalEdgeStyle;rounded=0;orthogonalLoop=1;jettySize=auto;html=1;dashed=1;endArrow=baseDash;endFill=0;" edge="1" parent="1" source="BkS2omjK2WoESzhq4RRW-5" target="BkS2omjK2WoESzhq4RRW-3">
          <mxGeometry relative="1" as="geometry">
            <Array as="points">
              <mxPoint x="760" y="280" />
              <mxPoint x="760" y="100" />
            </Array>
          </mxGeometry>
        </mxCell>
        <mxCell id="BkS2omjK2WoESzhq4RRW-29" style="edgeStyle=orthogonalEdgeStyle;rounded=0;orthogonalLoop=1;jettySize=auto;html=1;dashed=1;endArrow=baseDash;endFill=0;" edge="1" parent="1" source="BkS2omjK2WoESzhq4RRW-5" target="BkS2omjK2WoESzhq4RRW-11">
          <mxGeometry relative="1" as="geometry">
            <Array as="points">
              <mxPoint x="760" y="280" />
              <mxPoint x="760" y="330" />
              <mxPoint x="518" y="330" />
            </Array>
          </mxGeometry>
        </mxCell>
        <mxCell id="BkS2omjK2WoESzhq4RRW-30" style="edgeStyle=orthogonalEdgeStyle;rounded=0;orthogonalLoop=1;jettySize=auto;html=1;dashed=1;endArrow=baseDash;endFill=0;" edge="1" parent="1" source="BkS2omjK2WoESzhq4RRW-5" target="BkS2omjK2WoESzhq4RRW-12">
          <mxGeometry relative="1" as="geometry">
            <Array as="points">
              <mxPoint x="760" y="280" />
              <mxPoint x="760" y="330" />
              <mxPoint x="228" y="330" />
            </Array>
          </mxGeometry>
        </mxCell>
        <mxCell id="BkS2omjK2WoESzhq4RRW-38" style="edgeStyle=orthogonalEdgeStyle;rounded=0;orthogonalLoop=1;jettySize=auto;html=1;startArrow=none;startFill=0;dashed=1;endArrow=none;endFill=0;" edge="1" parent="1" source="BkS2omjK2WoESzhq4RRW-5" target="BkS2omjK2WoESzhq4RRW-2">
          <mxGeometry relative="1" as="geometry">
            <Array as="points">
              <mxPoint x="760" y="280" />
              <mxPoint x="760" y="330" />
              <mxPoint x="370" y="330" />
            </Array>
          </mxGeometry>
        </mxCell>
        <mxCell id="BkS2omjK2WoESzhq4RRW-39" style="edgeStyle=orthogonalEdgeStyle;rounded=0;orthogonalLoop=1;jettySize=auto;html=1;entryX=0.75;entryY=1;entryDx=0;entryDy=0;dashed=1;endArrow=none;endFill=0;" edge="1" parent="1" source="BkS2omjK2WoESzhq4RRW-5" target="BkS2omjK2WoESzhq4RRW-1">
          <mxGeometry relative="1" as="geometry">
            <Array as="points">
              <mxPoint x="760" y="280" />
              <mxPoint x="760" y="330" />
              <mxPoint x="130" y="330" />
            </Array>
          </mxGeometry>
        </mxCell>
        <mxCell id="BkS2omjK2WoESzhq4RRW-5" value="Microcontrolador" style="whiteSpace=wrap;html=1;" vertex="1" parent="1">
          <mxGeometry x="620" y="250" width="100" height="60" as="geometry" />
        </mxCell>
        <mxCell id="BkS2omjK2WoESzhq4RRW-23" style="edgeStyle=orthogonalEdgeStyle;rounded=0;orthogonalLoop=1;jettySize=auto;html=1;endArrow=none;endFill=0;" edge="1" parent="1" source="BkS2omjK2WoESzhq4RRW-11">
          <mxGeometry relative="1" as="geometry">
            <mxPoint x="588" y="147" as="targetPoint" />
          </mxGeometry>
        </mxCell>
        <mxCell id="BkS2omjK2WoESzhq4RRW-11" value="" style="html=1;shape=mxgraph.electrical.electro-mechanical.twoWaySwitch;aspect=fixed;elSwitchState=2;direction=east;flipV=0;flipH=1;" vertex="1" parent="1">
          <mxGeometry x="480" y="134" width="75" height="26" as="geometry" />
        </mxCell>
        <mxCell id="BkS2omjK2WoESzhq4RRW-13" style="edgeStyle=orthogonalEdgeStyle;rounded=0;orthogonalLoop=1;jettySize=auto;html=1;exitX=0;exitY=0.5;exitDx=0;exitDy=0;entryX=1;entryY=0.5;entryDx=0;entryDy=0;endArrow=none;endFill=0;" edge="1" parent="1" source="BkS2omjK2WoESzhq4RRW-12" target="BkS2omjK2WoESzhq4RRW-1">
          <mxGeometry relative="1" as="geometry" />
        </mxCell>
        <mxCell id="BkS2omjK2WoESzhq4RRW-17" style="edgeStyle=orthogonalEdgeStyle;rounded=0;orthogonalLoop=1;jettySize=auto;html=1;endArrow=none;endFill=0;entryX=0.954;entryY=0.118;entryDx=0;entryDy=0;entryPerimeter=0;" edge="1" parent="1" target="BkS2omjK2WoESzhq4RRW-11">
          <mxGeometry relative="1" as="geometry">
            <mxPoint x="440" y="140" as="targetPoint" />
            <mxPoint x="180" y="190" as="sourcePoint" />
            <Array as="points">
              <mxPoint x="180" y="137" />
              <mxPoint x="190" y="137" />
            </Array>
          </mxGeometry>
        </mxCell>
        <mxCell id="BkS2omjK2WoESzhq4RRW-12" value="" style="html=1;shape=mxgraph.electrical.electro-mechanical.twoWaySwitch;aspect=fixed;elSwitchState=2;" vertex="1" parent="1">
          <mxGeometry x="190" y="177" width="75" height="26" as="geometry" />
        </mxCell>
        <mxCell id="BkS2omjK2WoESzhq4RRW-15" value="" style="endArrow=none;html=1;rounded=0;exitX=1;exitY=0.12;exitDx=0;exitDy=0;" edge="1" parent="1" source="BkS2omjK2WoESzhq4RRW-12">
          <mxGeometry width="50" height="50" relative="1" as="geometry">
            <mxPoint x="330" y="260" as="sourcePoint" />
            <mxPoint x="280" y="180" as="targetPoint" />
          </mxGeometry>
        </mxCell>
        <mxCell id="BkS2omjK2WoESzhq4RRW-16" value="" style="endArrow=none;html=1;rounded=0;exitX=0.976;exitY=0.885;exitDx=0;exitDy=0;exitPerimeter=0;" edge="1" parent="1">
          <mxGeometry width="50" height="50" relative="1" as="geometry">
            <mxPoint x="263.20000000000005" y="200.01" as="sourcePoint" />
            <mxPoint x="280" y="200" as="targetPoint" />
            <Array as="points">
              <mxPoint x="270" y="200" />
            </Array>
          </mxGeometry>
        </mxCell>
        <mxCell id="BkS2omjK2WoESzhq4RRW-18" style="edgeStyle=orthogonalEdgeStyle;rounded=0;orthogonalLoop=1;jettySize=auto;html=1;exitX=1;exitY=0.5;exitDx=0;exitDy=0;entryX=0.959;entryY=0.882;entryDx=0;entryDy=0;entryPerimeter=0;endArrow=none;endFill=0;" edge="1" parent="1" source="BkS2omjK2WoESzhq4RRW-2" target="BkS2omjK2WoESzhq4RRW-11">
          <mxGeometry relative="1" as="geometry" />
        </mxCell>
        <mxCell id="BkS2omjK2WoESzhq4RRW-20" value="" style="shape=link;html=1;rounded=0;" edge="1" parent="1">
          <mxGeometry width="100" relative="1" as="geometry">
            <mxPoint x="590" y="90" as="sourcePoint" />
            <mxPoint x="590" y="290" as="targetPoint" />
          </mxGeometry>
        </mxCell>
        <mxCell id="BkS2omjK2WoESzhq4RRW-25" style="edgeStyle=orthogonalEdgeStyle;rounded=0;orthogonalLoop=1;jettySize=auto;html=1;exitX=0;exitY=0.5;exitDx=0;exitDy=0;endArrow=none;endFill=0;" edge="1" parent="1">
          <mxGeometry relative="1" as="geometry">
            <mxPoint x="592" y="189.92000000000002" as="targetPoint" />
            <mxPoint x="620" y="189.92000000000002" as="sourcePoint" />
          </mxGeometry>
        </mxCell>
        <mxCell id="BkS2omjK2WoESzhq4RRW-26" style="edgeStyle=orthogonalEdgeStyle;rounded=0;orthogonalLoop=1;jettySize=auto;html=1;exitX=0;exitY=0.5;exitDx=0;exitDy=0;endArrow=none;endFill=0;" edge="1" parent="1">
          <mxGeometry relative="1" as="geometry">
            <mxPoint x="592" y="99.92" as="targetPoint" />
            <mxPoint x="620" y="99.92" as="sourcePoint" />
          </mxGeometry>
        </mxCell>
        <mxCell id="BkS2omjK2WoESzhq4RRW-34" style="edgeStyle=orthogonalEdgeStyle;rounded=0;orthogonalLoop=1;jettySize=auto;html=1;endArrow=baseDash;endFill=0;" edge="1" parent="1">
          <mxGeometry relative="1" as="geometry">
            <mxPoint x="339.9" y="230" as="targetPoint" />
            <mxPoint x="339.9" y="220" as="sourcePoint" />
            <Array as="points">
              <mxPoint x="339.9" y="230" />
              <mxPoint x="339.9" y="230" />
            </Array>
          </mxGeometry>
        </mxCell>
        <mxCell id="BkS2omjK2WoESzhq4RRW-35" style="edgeStyle=orthogonalEdgeStyle;rounded=0;orthogonalLoop=1;jettySize=auto;html=1;endArrow=baseDash;endFill=0;" edge="1" parent="1">
          <mxGeometry relative="1" as="geometry">
            <mxPoint x="669.86" y="140" as="targetPoint" />
            <mxPoint x="669.86" y="130" as="sourcePoint" />
            <Array as="points">
              <mxPoint x="669.86" y="140" />
              <mxPoint x="669.86" y="140" />
            </Array>
          </mxGeometry>
        </mxCell>
        <mxCell id="BkS2omjK2WoESzhq4RRW-36" style="edgeStyle=orthogonalEdgeStyle;rounded=0;orthogonalLoop=1;jettySize=auto;html=1;endArrow=baseDash;endFill=0;" edge="1" parent="1">
          <mxGeometry relative="1" as="geometry">
            <mxPoint x="669.86" y="230" as="targetPoint" />
            <mxPoint x="669.86" y="220" as="sourcePoint" />
            <Array as="points">
              <mxPoint x="669.86" y="230" />
              <mxPoint x="669.86" y="230" />
            </Array>
          </mxGeometry>
        </mxCell>
        <mxCell id="BkS2omjK2WoESzhq4RRW-37" style="edgeStyle=orthogonalEdgeStyle;rounded=0;orthogonalLoop=1;jettySize=auto;html=1;endArrow=baseDash;endFill=0;" edge="1" parent="1">
          <mxGeometry relative="1" as="geometry">
            <mxPoint x="669.86" y="320" as="targetPoint" />
            <mxPoint x="669.86" y="310" as="sourcePoint" />
            <Array as="points">
              <mxPoint x="669.86" y="320" />
              <mxPoint x="669.86" y="320" />
            </Array>
          </mxGeometry>
        </mxCell>
      </root>
    </mxGraphModel>
  </diagram>
</mxfile>
